<svg xmlns="http://www.w3.org/2000/svg" width="63mm" height="88mm" viewBox="0 0 252 352"><rect x="3" y="3" width="246" height="346" rx="13" fill="#F3EFE7" stroke="#2B2620" stroke-width="2.6"/>
<rect x="11" y="11" width="230" height="330" rx="8" fill="none" stroke="#7A7168" stroke-width="0.8"/>
<text x="23" y="47" font-family="Helvetica, Arial, sans-serif" font-size="21.17" fill="#2B2620" font-weight="bold" letter-spacing="0.5">ADD PANEL</text>
<rect x="23" y="58" width="82.4" height="21" rx="10.5" fill="none" stroke="#2B2620" stroke-width="1.1"/>
<path d="M 30 67 L 42 67 M 30 72 L 42 72" stroke="#2B2620" stroke-width="1.6" stroke-linecap="round"/>
<text x="48" y="73" font-family="Helvetica, Arial, sans-serif" font-size="11" fill="#2B2620" font-weight="bold" letter-spacing="0.8">SETTLE</text>
<circle cx="205" cy="47" r="27" fill="#FFFFFF" stroke="#2B2620" stroke-width="3"/>
<text x="205" y="59" font-family="Helvetica, Arial, sans-serif" font-size="34" fill="#2B2620" text-anchor="middle" font-weight="bold" font-style="normal">3</text>
<text x="205" y="87" font-family="Helvetica, Arial, sans-serif" font-size="9.5" fill="#7A7168" text-anchor="middle" font-weight="bold" font-style="normal">work</text>
<rect x="51.0" y="104" width="15" height="15" fill="#B3A15E" stroke="#2B2620" stroke-width="0.6"/>
<rect x="66.0" y="104" width="15" height="15" fill="#8FBE6E" stroke="#2B2620" stroke-width="0.6"/>
<rect x="81.0" y="104" width="15" height="15" fill="#8FBE6E" stroke="#2B2620" stroke-width="0.6"/>
<rect x="96.0" y="104" width="15" height="15" fill="#E8D18F" stroke="#2B2620" stroke-width="0.6"/>
<rect x="111.0" y="104" width="15" height="15" fill="#A7D5E4" stroke="#2B2620" stroke-width="0.6"/>
<rect x="126.0" y="104" width="15" height="15" fill="#EFEADD" stroke="#2B2620" stroke-width="0.6"/>
<rect x="141.0" y="104" width="15" height="15" fill="#EFEADD" stroke="#2B2620" stroke-width="0.6"/>
<rect x="156.0" y="104" width="15" height="15" fill="#EFEADD" stroke="#2B2620" stroke-width="0.6"/>
<rect x="171.0" y="104" width="15" height="15" fill="#EFEADD" stroke="#2B2620" stroke-width="0.6"/>
<rect x="186.0" y="104" width="15" height="15" fill="#EFEADD" stroke="#2B2620" stroke-width="0.6"/>
<rect x="51.0" y="119" width="15" height="15" fill="#B3A15E" stroke="#2B2620" stroke-width="0.6"/>
<rect x="66.0" y="119" width="15" height="15" fill="#8FBE6E" stroke="#2B2620" stroke-width="0.6"/>
<rect x="81.0" y="119" width="15" height="15" fill="#8FBE6E" stroke="#2B2620" stroke-width="0.6"/>
<rect x="96.0" y="119" width="15" height="15" fill="#E8D18F" stroke="#2B2620" stroke-width="0.6"/>
<rect x="111.0" y="119" width="15" height="15" fill="#A7D5E4" stroke="#2B2620" stroke-width="0.6"/>
<rect x="126.0" y="119" width="15" height="15" fill="#EFEADD" stroke="#2B2620" stroke-width="0.6"/>
<rect x="141.0" y="119" width="15" height="15" fill="#EFEADD" stroke="#2B2620" stroke-width="0.6"/>
<rect x="156.0" y="119" width="15" height="15" fill="#EFEADD" stroke="#2B2620" stroke-width="0.6"/>
<rect x="171.0" y="119" width="15" height="15" fill="#EFEADD" stroke="#2B2620" stroke-width="0.6"/>
<rect x="186.0" y="119" width="15" height="15" fill="#EFEADD" stroke="#2B2620" stroke-width="0.6"/>
<rect x="51.0" y="134" width="15" height="15" fill="#8FBE6E" stroke="#2B2620" stroke-width="0.6"/>
<rect x="66.0" y="134" width="15" height="15" fill="#8FBE6E" stroke="#2B2620" stroke-width="0.6"/>
<rect x="81.0" y="134" width="15" height="15" fill="#E8D18F" stroke="#2B2620" stroke-width="0.6"/>
<rect x="96.0" y="134" width="15" height="15" fill="#A7D5E4" stroke="#2B2620" stroke-width="0.6"/>
<rect x="111.0" y="134" width="15" height="15" fill="#A7D5E4" stroke="#2B2620" stroke-width="0.6"/>
<rect x="126.0" y="134" width="15" height="15" fill="#A7D5E4" stroke="#2B2620" stroke-width="0.6"/>
<rect x="141.0" y="134" width="15" height="15" fill="#EFEADD" stroke="#2B2620" stroke-width="0.6"/>
<rect x="156.0" y="134" width="15" height="15" fill="#EFEADD" stroke="#2B2620" stroke-width="0.6"/>
<rect x="171.0" y="134" width="15" height="15" fill="#EFEADD" stroke="#2B2620" stroke-width="0.6"/>
<rect x="186.0" y="134" width="15" height="15" fill="#EFEADD" stroke="#2B2620" stroke-width="0.6"/>
<rect x="51.0" y="149" width="15" height="15" fill="#8FBE6E" stroke="#2B2620" stroke-width="0.6"/>
<rect x="66.0" y="149" width="15" height="15" fill="#8FBE6E" stroke="#2B2620" stroke-width="0.6"/>
<rect x="81.0" y="149" width="15" height="15" fill="#E8D18F" stroke="#2B2620" stroke-width="0.6"/>
<rect x="96.0" y="149" width="15" height="15" fill="#A7D5E4" stroke="#2B2620" stroke-width="0.6"/>
<rect x="111.0" y="149" width="15" height="15" fill="#4193BC" stroke="#2B2620" stroke-width="0.6"/>
<rect x="126.0" y="149" width="15" height="15" fill="#A7D5E4" stroke="#2B2620" stroke-width="0.6"/>
<rect x="141.0" y="149" width="15" height="15" fill="#EFEADD" stroke="#2B2620" stroke-width="0.6"/>
<rect x="156.0" y="149" width="15" height="15" fill="#EFEADD" stroke="#2B2620" stroke-width="0.6"/>
<rect x="171.0" y="149" width="15" height="15" fill="#EFEADD" stroke="#2B2620" stroke-width="0.6"/>
<rect x="186.0" y="149" width="15" height="15" fill="#EFEADD" stroke="#2B2620" stroke-width="0.6"/>
<rect x="51.0" y="164" width="15" height="15" fill="#8FBE6E" stroke="#2B2620" stroke-width="0.6"/>
<rect x="66.0" y="164" width="15" height="15" fill="#E8D18F" stroke="#2B2620" stroke-width="0.6"/>
<rect x="81.0" y="164" width="15" height="15" fill="#A7D5E4" stroke="#2B2620" stroke-width="0.6"/>
<rect x="96.0" y="164" width="15" height="15" fill="#A7D5E4" stroke="#2B2620" stroke-width="0.6"/>
<rect x="111.0" y="164" width="15" height="15" fill="#4193BC" stroke="#2B2620" stroke-width="0.6"/>
<rect x="126.0" y="164" width="15" height="15" fill="#4193BC" stroke="#2B2620" stroke-width="0.6"/>
<rect x="141.0" y="164" width="15" height="15" fill="#EFEADD" stroke="#2B2620" stroke-width="0.6"/>
<rect x="156.0" y="164" width="15" height="15" fill="#EFEADD" stroke="#2B2620" stroke-width="0.6"/>
<rect x="171.0" y="164" width="15" height="15" fill="#EFEADD" stroke="#2B2620" stroke-width="0.6"/>
<rect x="186.0" y="164" width="15" height="15" fill="#EFEADD" stroke="#2B2620" stroke-width="0.6"/>
<rect x="51.0" y="179" width="15" height="15" fill="#E8D18F" stroke="#2B2620" stroke-width="0.6"/>
<rect x="66.0" y="179" width="15" height="15" fill="#E8D18F" stroke="#2B2620" stroke-width="0.6"/>
<rect x="81.0" y="179" width="15" height="15" fill="#A7D5E4" stroke="#2B2620" stroke-width="0.6"/>
<rect x="96.0" y="179" width="15" height="15" fill="#4193BC" stroke="#2B2620" stroke-width="0.6"/>
<rect x="111.0" y="179" width="15" height="15" fill="#4193BC" stroke="#2B2620" stroke-width="0.6"/>
<rect x="126.0" y="179" width="15" height="15" fill="#EFEADD" stroke="#2B2620" stroke-width="0.6"/>
<rect x="141.0" y="179" width="15" height="15" fill="#EFEADD" stroke="#2B2620" stroke-width="0.6"/>
<rect x="156.0" y="179" width="15" height="15" fill="#EFEADD" stroke="#2B2620" stroke-width="0.6"/>
<rect x="171.0" y="179" width="15" height="15" fill="#EFEADD" stroke="#2B2620" stroke-width="0.6"/>
<rect x="186.0" y="179" width="15" height="15" fill="#EFEADD" stroke="#2B2620" stroke-width="0.6"/>
<rect x="51.0" y="104" width="75" height="90" fill="none" stroke="#2B2620" stroke-width="1.6"/>
<rect x="126.0" y="104" width="75" height="90" fill="none" stroke="#D19A2E" stroke-width="2.4"/>
<line x1="126.0" y1="100" x2="126.0" y2="198" stroke="#2B2620" stroke-width="2.6"/>
<text x="88.5" y="97" font-family="Helvetica, Arial, sans-serif" font-size="8.5" fill="#7A7168" text-anchor="middle" font-weight="normal" font-style="normal">the map</text>
<text x="163.5" y="97" font-family="Helvetica, Arial, sans-serif" font-size="8.5" fill="#7A7168" text-anchor="middle" font-weight="normal" font-style="normal">new panel</text>
<text x="126.0" y="210" font-family="Helvetica, Arial, sans-serif" font-size="9.5" fill="#7A7168" text-anchor="middle" font-weight="normal" font-style="italic">its first 3 units grow in from the border</text>
<line x1="30" y1="222" x2="222" y2="222" stroke="#7A7168" stroke-width="0.8"/>
<text x="126.0" y="239.0" font-family="Helvetica, Arial, sans-serif" font-size="11" fill="#2B2620" text-anchor="middle" font-weight="normal" font-style="normal">The map grows. Place the new</text>
<text x="126.0" y="254.0" font-family="Helvetica, Arial, sans-serif" font-size="11" fill="#2B2620" text-anchor="middle" font-weight="normal" font-style="normal">panel at the open spot nearest</text>
<text x="126.0" y="269.0" font-family="Helvetica, Arial, sans-serif" font-size="11" fill="#2B2620" text-anchor="middle" font-weight="normal" font-style="normal">the map's middle. It is your</text>
<text x="126.0" y="284.0" font-family="Helvetica, Arial, sans-serif" font-size="11" fill="#2B2620" text-anchor="middle" font-weight="normal" font-style="normal">working panel this turn: its first</text>
<text x="126.0" y="299.0" font-family="Helvetica, Arial, sans-serif" font-size="11" fill="#2B2620" text-anchor="middle" font-weight="normal" font-style="normal">units grow in from the border.</text>
<line x1="60" y1="310" x2="192" y2="310" stroke="#7A7168" stroke-width="0.6"/>
<text x="126.0" y="328" font-family="Helvetica, Arial, sans-serif" font-size="9.5" fill="#7A7168" text-anchor="middle" font-weight="normal" font-style="normal">Settle: the fill keeps the dominant elevation</text>
</svg>